# xmcd
#
# Track frame offsets:
#	150
#	17673
#	30633
#	43155
#	64927
#	77718
#	92453
#	108053
#	126119
#	139974
#	153980
#	174182
#	191580
#	206754
#	219328
#
# Disc length: 3085 seconds
#
# Revision: 1
# Processed by: cddbd v1.5.2PL0 Copyright (c) Steve Scherf et al.
# Submitted via: audiograbber 1.83.01
#
DISCID=c40c0b0f
DTITLE=Imelda May - Mayhem
DYEAR=2010
DGENRE=
TTITLE0=Pulling the Rug
TTITLE1=Psycho
TTITLE2=Mayhem
TTITLE3=Kentish Town Waltz
TTITLE4=All for you
TTITLE5=Eternity
TTITLE6=Inside Out
TTITLE7=Proud and Humble
TTITLE8=Sneaky Freak
TTITLE9=Bury my Troubles
TTITLE10=Too Sad to Cry
TTITLE11=I'm Alive
TTITLE12=Let Me Out
TTITLE13=Tainted Love
TTITLE14=Johnny got a Boom Boom (remix)
EXTD=
EXTT0=
EXTT1=
EXTT2=
EXTT3=
EXTT4=
EXTT5=
EXTT6=
EXTT7=
EXTT8=
EXTT9=
EXTT10=
EXTT11=
EXTT12=
EXTT13=
EXTT14=
PLAYORDER=
